<svg width="1837" height="586" viewBox="0 0 1837 586" fill="none" xmlns="http://www.w3.org/2000/svg">
<g filter="url(#filter0_d_13_4)">
<path fill-rule="evenodd" clip-rule="evenodd" d="M0 30.0902C0 13.4714 13.4813 0 30.1105 0H482.889C499.518 0 513 13.4711 513 30.0902V358.128C513 374.593 499.653 387.941 483.188 387.941C466.723 387.941 453.375 374.593 453.375 358.128V59.5845H59.6248V380.839C59.6248 381.387 60.0803 381.833 60.6278 381.839C282.411 384.546 391.194 397.847 480.667 484.476C492.49 495.923 492.781 514.796 481.326 526.611C469.875 538.422 450.997 538.713 439.178 527.269C417.767 506.539 360.726 442.882 113.287 440.876H50C22.3858 440.876 0 418.49 0 390.876V30.0902Z" fill="#9146FF"/>
<path fill-rule="evenodd" clip-rule="evenodd" d="M186.108 131.39C202.573 131.39 215.92 144.737 215.92 161.202V280.391C215.92 296.856 202.573 310.203 186.108 310.203C169.643 310.203 156.295 296.856 156.295 280.391V161.202C156.295 144.737 169.643 131.39 186.108 131.39Z" fill="#9146FF"/>
<path fill-rule="evenodd" clip-rule="evenodd" d="M304.701 131.39C321.166 131.39 334.513 144.737 334.513 161.202V280.391C334.513 296.856 321.166 310.203 304.701 310.203C288.236 310.203 274.889 296.856 274.889 280.391V161.202C274.889 144.737 288.236 131.39 304.701 131.39Z" fill="#9146FF"/>
</g>
<path d="M680.335 157.203V125.727H845.708V157.203H781.644V333H744.4V157.203H680.335ZM890.239 333L846.315 177.545H883.661L910.987 286.849H912.404L940.337 177.545H977.278L1005.21 286.242H1006.73L1033.65 177.545H1071.1L1027.07 333H988.917L959.769 227.947H957.643L928.496 333H890.239ZM1096.68 333V177.545H1133.31V333H1096.68ZM1115.1 155.482C1109.29 155.482 1104.3 153.559 1100.12 149.713C1095.93 145.8 1093.84 141.111 1093.84 135.646C1093.84 130.113 1095.93 125.424 1100.12 121.578C1104.3 117.664 1109.29 115.708 1115.1 115.708C1120.97 115.708 1125.96 117.664 1130.08 121.578C1134.26 125.424 1136.35 130.113 1136.35 135.646C1136.35 141.111 1134.26 145.8 1130.08 149.713C1125.96 153.559 1120.97 155.482 1115.1 155.482ZM1248.61 177.545V205.884H1159.25V177.545H1248.61ZM1181.31 140.301H1217.95V286.242C1217.95 291.168 1218.69 294.946 1220.18 297.577C1221.73 300.141 1223.75 301.896 1226.25 302.84C1228.74 303.785 1231.51 304.257 1234.55 304.257C1236.84 304.257 1238.93 304.088 1240.82 303.751C1242.78 303.414 1244.26 303.11 1245.27 302.84L1251.45 331.482C1249.49 332.157 1246.69 332.899 1243.05 333.708C1239.47 334.518 1235.09 334.99 1229.89 335.125C1220.72 335.395 1212.45 334.012 1205.1 330.976C1197.74 327.872 1191.9 323.082 1187.59 316.604C1183.34 310.127 1181.24 302.031 1181.31 292.315V140.301ZM1345.39 336.036C1329.88 336.036 1316.55 332.629 1305.42 325.814C1294.35 319 1285.82 309.587 1279.81 297.577C1273.87 285.5 1270.91 271.601 1270.91 255.88C1270.91 240.092 1273.94 226.159 1280.01 214.081C1286.09 201.936 1294.66 192.49 1305.72 185.743C1316.85 178.929 1330.01 175.521 1345.19 175.521C1357.81 175.521 1368.98 177.849 1378.69 182.505C1388.47 187.093 1396.27 193.604 1402.07 202.038C1407.87 210.404 1411.18 220.187 1411.99 231.388H1376.97C1375.55 223.898 1372.18 217.657 1366.85 212.664C1361.59 207.604 1354.54 205.074 1345.7 205.074C1338.21 205.074 1331.63 207.098 1325.96 211.146C1320.29 215.127 1315.88 220.862 1312.7 228.352C1309.6 235.841 1308.05 244.815 1308.05 255.273C1308.05 265.866 1309.6 274.974 1312.7 282.599C1315.81 290.156 1320.16 295.992 1325.76 300.108C1331.43 304.156 1338.07 306.18 1345.7 306.18C1351.1 306.18 1355.92 305.168 1360.17 303.144C1364.49 301.052 1368.1 298.05 1371 294.136C1373.9 290.223 1375.89 285.466 1376.97 279.866H1411.99C1411.11 290.864 1407.87 300.614 1402.27 309.115C1396.67 317.549 1389.05 324.161 1379.4 328.952C1369.75 333.675 1358.42 336.036 1345.39 336.036ZM1478.71 241.913V333H1442.07V125.727H1477.9V203.961H1479.72C1483.37 195.189 1489 188.273 1496.62 183.213C1504.32 178.085 1514.1 175.521 1525.97 175.521C1536.77 175.521 1546.18 177.782 1554.21 182.302C1562.24 186.823 1568.45 193.435 1572.83 202.139C1577.29 210.843 1579.51 221.469 1579.51 234.019V333H1542.88V239.687C1542.88 229.229 1540.18 221.098 1534.78 215.296C1529.45 209.426 1521.96 206.491 1512.31 206.491C1505.83 206.491 1500.03 207.908 1494.9 210.741C1489.84 213.508 1485.86 217.522 1482.96 222.785C1480.13 228.048 1478.71 234.424 1478.71 241.913ZM1653.49 125.727V333H1616.86V125.727H1653.49ZM1713.94 391.295C1708.95 391.295 1704.33 390.891 1700.08 390.081C1695.89 389.339 1692.55 388.462 1690.06 387.45L1698.56 358.909C1703.89 360.461 1708.64 361.203 1712.83 361.136C1717.01 361.068 1720.69 359.752 1723.86 357.189C1727.1 354.692 1729.83 350.509 1732.06 344.639L1735.19 336.239L1678.82 177.545H1717.69L1753.51 294.946H1755.13L1791.06 177.545H1830.03L1767.78 351.825C1764.88 360.056 1761.04 367.107 1756.25 372.977C1751.46 378.914 1745.59 383.435 1738.64 386.539C1731.75 389.71 1723.52 391.295 1713.94 391.295Z" fill="white"/>
<defs>
<filter id="filter0_d_13_4" x="0" y="0" width="563" height="585.664" filterUnits="userSpaceOnUse" color-interpolation-filters="sRGB">
<feFlood flood-opacity="0" result="BackgroundImageFix"/>
<feColorMatrix in="SourceAlpha" type="matrix" values="0 0 0 0 0 0 0 0 0 0 0 0 0 0 0 0 0 0 127 0" result="hardAlpha"/>
<feOffset dx="25" dy="25"/>
<feGaussianBlur stdDeviation="12.5"/>
<feComposite in2="hardAlpha" operator="out"/>
<feColorMatrix type="matrix" values="0 0 0 0 0 0 0 0 0 0 0 0 0 0 0 0 0 0 0.5 0"/>
<feBlend mode="normal" in2="BackgroundImageFix" result="effect1_dropShadow_13_4"/>
<feBlend mode="normal" in="SourceGraphic" in2="effect1_dropShadow_13_4" result="shape"/>
</filter>
</defs>
</svg>
