<svg width="32" height="32" viewBox="0 0 32 32" fill="none"
  xmlns="http://www.w3.org/2000/svg">
  <circle cx="16" cy="16" r="16" fill="#E11138"/>
  <path d="M24.64 14.4C24.64 14.7798 24.5274 15.151 24.3164 15.4667C24.1054 15.7825 23.8056 16.0285 23.4547 16.1739C23.1039 16.3192 22.7179 16.3572 22.3454 16.2831C21.973 16.209 21.6309 16.0262 21.3623 15.7577C21.0938 15.4891 20.911 15.147 20.8369 14.7746C20.7628 14.4021 20.8008 14.0161 20.9461 13.6653C21.0915 13.3144 21.3375 13.0146 21.6533 12.8036C21.969 12.5926 22.3402 12.48 22.72 12.48C23.2292 12.48 23.7176 12.6823 24.0776 13.0424C24.4377 13.4024 24.64 13.8908 24.64 14.4ZM11.2 14.4C11.2 14.0203 11.0874 13.6491 10.8764 13.3333C10.6654 13.0176 10.3656 12.7715 10.0147 12.6262C9.6639 12.4808 9.27786 12.4428 8.90541 12.5169C8.53297 12.591 8.19086 12.7739 7.92234 13.0424C7.65382 13.3109 7.47096 13.653 7.39688 14.0254C7.32279 14.3979 7.36082 14.7839 7.50614 15.1348C7.65146 15.4856 7.89755 15.7855 8.21329 15.9964C8.52903 16.2074 8.90025 16.32 9.27999 16.32C9.7892 16.32 10.2776 16.1177 10.6376 15.7577C10.9977 15.3976 11.2 14.9092 11.2 14.4ZM13.12 12.48C13.4997 12.48 13.8709 12.3674 14.1867 12.1564C14.5024 11.9455 14.7485 11.6456 14.8938 11.2948C15.0392 10.9439 15.0772 10.5579 15.0031 10.1854C14.929 9.813 14.7461 9.47089 14.4776 9.20237C14.2091 8.93385 13.867 8.75099 13.4946 8.67691C13.1221 8.60282 12.7361 8.64085 12.3852 8.78617C12.0344 8.93149 11.7345 9.17758 11.5236 9.49332C11.3126 9.80906 11.2 10.1803 11.2 10.56C11.2 11.0692 11.4023 11.5576 11.7623 11.9177C12.1224 12.2777 12.6108 12.48 13.12 12.48ZM18.88 12.48C19.2597 12.48 19.6309 12.3674 19.9467 12.1564C20.2624 11.9455 20.5085 11.6456 20.6538 11.2948C20.7992 10.9439 20.8372 10.5579 20.7631 10.1854C20.689 9.813 20.5061 9.47089 20.2376 9.20237C19.9691 8.93385 19.627 8.75099 19.2546 8.67691C18.8821 8.60282 18.4961 8.64085 18.1452 8.78617C17.7944 8.93149 17.4945 9.17758 17.2836 9.49332C17.0726 9.80906 16.96 10.1803 16.96 10.56C16.96 11.0692 17.1623 11.5576 17.5223 11.9177C17.8824 12.2777 18.3708 12.48 18.88 12.48ZM22.72 20.48C22.7201 21.0609 22.5765 21.6327 22.3019 22.1446C22.0274 22.6564 21.6304 23.0924 21.1464 23.4136C20.6625 23.7348 20.1065 23.9312 19.5282 23.9854C18.9499 24.0395 18.3672 23.9498 17.832 23.724C16.6584 23.2408 15.3415 23.2408 14.168 23.724C13.3353 24.076 12.399 24.094 11.5534 23.7745C10.7077 23.4549 10.0174 22.8222 9.6255 22.0075C9.23363 21.1928 9.17024 20.2586 9.44847 19.3984C9.7267 18.5382 10.3252 17.8181 11.12 17.3872C11.7004 17.0652 12.1294 16.526 12.3128 15.888C12.545 15.0897 13.0299 14.3884 13.6948 13.8893C14.3597 13.3903 15.1686 13.1205 16 13.1205C16.8313 13.1205 17.6402 13.3903 18.3051 13.8893C18.97 14.3884 19.455 15.0897 19.6872 15.888C19.8707 16.5259 20.2996 17.0651 20.88 17.3872C21.4366 17.6895 21.9013 18.1364 22.2251 18.6807C22.5489 19.225 22.7199 19.8466 22.72 20.48ZM20.8 20.48C20.8001 20.1915 20.7221 19.9083 20.5744 19.6604C20.4266 19.4125 20.2146 19.2092 19.9608 19.072L19.9528 19.0672C18.9275 18.5016 18.1687 17.552 17.8432 16.4272C17.7269 16.0284 17.4843 15.6781 17.152 15.4288C16.8196 15.1796 16.4154 15.0448 16 15.0448C15.5846 15.0448 15.1803 15.1796 14.848 15.4288C14.5156 15.6781 14.2731 16.0284 14.1568 16.4272C13.9961 16.9849 13.7271 17.5055 13.3651 17.9592C13.0031 18.4128 12.5553 18.7907 12.0472 19.0712L12.0392 19.076C11.7278 19.2462 11.4818 19.5151 11.3399 19.8404C11.198 20.1656 11.1683 20.5288 11.2555 20.8728C11.3426 21.2169 11.5416 21.5221 11.8212 21.7407C12.1008 21.9592 12.4451 22.0786 12.8 22.08C13.0144 22.0806 13.2267 22.0376 13.424 21.9536H13.4344C15.0775 21.2749 16.9225 21.2749 18.5656 21.9536H18.576C18.7733 22.0376 18.9856 22.0806 19.2 22.08C19.6243 22.08 20.0313 21.9114 20.3314 21.6114C20.6314 21.3113 20.8 20.9044 20.8 20.48Z" fill="white"/>
</svg>
