<svg width="114" height="32" viewBox="0 0 114 32" fill="none" xmlns="http://www.w3.org/2000/svg">
<circle cx="16" cy="16" r="16" fill="#E11138"/>
<path d="M24.64 14.4C24.64 14.7798 24.5274 15.151 24.3164 15.4667C24.1054 15.7825 23.8056 16.0285 23.4547 16.1739C23.1039 16.3192 22.7179 16.3572 22.3454 16.2831C21.973 16.209 21.6309 16.0262 21.3623 15.7577C21.0938 15.4891 20.911 15.147 20.8369 14.7746C20.7628 14.4021 20.8008 14.0161 20.9461 13.6653C21.0915 13.3144 21.3375 13.0146 21.6533 12.8036C21.969 12.5926 22.3402 12.48 22.72 12.48C23.2292 12.48 23.7176 12.6823 24.0776 13.0424C24.4377 13.4024 24.64 13.8908 24.64 14.4ZM11.2 14.4C11.2 14.0203 11.0874 13.6491 10.8764 13.3333C10.6654 13.0176 10.3656 12.7715 10.0147 12.6262C9.6639 12.4808 9.27786 12.4428 8.90541 12.5169C8.53297 12.591 8.19086 12.7739 7.92234 13.0424C7.65382 13.3109 7.47096 13.653 7.39688 14.0254C7.32279 14.3979 7.36082 14.7839 7.50614 15.1348C7.65146 15.4856 7.89755 15.7855 8.21329 15.9964C8.52903 16.2074 8.90025 16.32 9.27999 16.32C9.7892 16.32 10.2776 16.1177 10.6376 15.7577C10.9977 15.3976 11.2 14.9092 11.2 14.4ZM13.12 12.48C13.4997 12.48 13.8709 12.3674 14.1867 12.1564C14.5024 11.9455 14.7485 11.6456 14.8938 11.2948C15.0392 10.9439 15.0772 10.5579 15.0031 10.1854C14.929 9.813 14.7461 9.47089 14.4776 9.20237C14.2091 8.93385 13.867 8.75099 13.4946 8.67691C13.1221 8.60282 12.7361 8.64085 12.3852 8.78617C12.0344 8.93149 11.7345 9.17758 11.5236 9.49332C11.3126 9.80906 11.2 10.1803 11.2 10.56C11.2 11.0692 11.4023 11.5576 11.7623 11.9177C12.1224 12.2777 12.6108 12.48 13.12 12.48ZM18.88 12.48C19.2597 12.48 19.6309 12.3674 19.9467 12.1564C20.2624 11.9455 20.5085 11.6456 20.6538 11.2948C20.7992 10.9439 20.8372 10.5579 20.7631 10.1854C20.689 9.813 20.5061 9.47089 20.2376 9.20237C19.9691 8.93385 19.627 8.75099 19.2546 8.67691C18.8821 8.60282 18.4961 8.64085 18.1452 8.78617C17.7944 8.93149 17.4945 9.17758 17.2836 9.49332C17.0726 9.80906 16.96 10.1803 16.96 10.56C16.96 11.0692 17.1623 11.5576 17.5223 11.9177C17.8824 12.2777 18.3708 12.48 18.88 12.48ZM22.72 20.48C22.7201 21.0609 22.5765 21.6327 22.3019 22.1446C22.0274 22.6564 21.6304 23.0924 21.1464 23.4136C20.6625 23.7348 20.1065 23.9312 19.5282 23.9854C18.9499 24.0395 18.3672 23.9498 17.832 23.724C16.6584 23.2408 15.3415 23.2408 14.168 23.724C13.3353 24.076 12.399 24.094 11.5534 23.7745C10.7077 23.4549 10.0174 22.8222 9.6255 22.0075C9.23363 21.1928 9.17024 20.2586 9.44847 19.3984C9.7267 18.5382 10.3252 17.8181 11.12 17.3872C11.7004 17.0652 12.1294 16.526 12.3128 15.888C12.545 15.0897 13.0299 14.3884 13.6948 13.8893C14.3597 13.3903 15.1686 13.1205 16 13.1205C16.8313 13.1205 17.6402 13.3903 18.3051 13.8893C18.97 14.3884 19.455 15.0897 19.6872 15.888C19.8707 16.5259 20.2996 17.0651 20.88 17.3872C21.4366 17.6895 21.9013 18.1364 22.2251 18.6807C22.5489 19.225 22.7199 19.8466 22.72 20.48ZM20.8 20.48C20.8001 20.1915 20.7221 19.9083 20.5744 19.6604C20.4266 19.4125 20.2146 19.2092 19.9608 19.072L19.9528 19.0672C18.9275 18.5016 18.1687 17.552 17.8432 16.4272C17.7269 16.0284 17.4843 15.6781 17.152 15.4288C16.8196 15.1796 16.4154 15.0448 16 15.0448C15.5846 15.0448 15.1803 15.1796 14.848 15.4288C14.5156 15.6781 14.2731 16.0284 14.1568 16.4272C13.9961 16.9849 13.7271 17.5055 13.3651 17.9592C13.0031 18.4128 12.5553 18.7907 12.0472 19.0712L12.0392 19.076C11.7278 19.2462 11.4818 19.5151 11.3399 19.8404C11.198 20.1656 11.1683 20.5288 11.2555 20.8728C11.3426 21.2169 11.5416 21.5221 11.8212 21.7407C12.1008 21.9592 12.4451 22.0786 12.8 22.08C13.0144 22.0806 13.2267 22.0376 13.424 21.9536H13.4344C15.0775 21.2749 16.9225 21.2749 18.5656 21.9536H18.576C18.7733 22.0376 18.9856 22.0806 19.2 22.08C19.6243 22.08 20.0313 21.9114 20.3314 21.6114C20.6314 21.3113 20.8 20.9044 20.8 20.48Z" fill="white"/>
<path d="M44.34 20.598C43.6587 20.598 43.0427 20.4813 42.492 20.248C41.9507 20.0147 41.5213 19.6787 41.204 19.24C40.8867 18.8013 40.7233 18.2833 40.714 17.686H42.814C42.842 18.0873 42.982 18.4047 43.234 18.638C43.4953 18.8713 43.85 18.988 44.298 18.988C44.7553 18.988 45.1147 18.8807 45.376 18.666C45.6373 18.442 45.768 18.1527 45.768 17.798C45.768 17.5087 45.6793 17.2707 45.502 17.084C45.3247 16.8973 45.1007 16.7527 44.83 16.65C44.5687 16.538 44.2047 16.4167 43.738 16.286C43.1033 16.0993 42.5853 15.9173 42.184 15.74C41.792 15.5533 41.4513 15.278 41.162 14.914C40.882 14.5407 40.742 14.046 40.742 13.43C40.742 12.8513 40.8867 12.3473 41.176 11.918C41.4653 11.4887 41.8713 11.162 42.394 10.938C42.9167 10.7047 43.514 10.588 44.186 10.588C45.194 10.588 46.0107 10.8353 46.636 11.33C47.2707 11.8153 47.6207 12.4967 47.686 13.374H45.53C45.5113 13.038 45.3667 12.7627 45.096 12.548C44.8347 12.324 44.4847 12.212 44.046 12.212C43.6633 12.212 43.3553 12.31 43.122 12.506C42.898 12.702 42.786 12.9867 42.786 13.36C42.786 13.6213 42.87 13.8407 43.038 14.018C43.2153 14.186 43.43 14.326 43.682 14.438C43.9433 14.5407 44.3073 14.662 44.774 14.802C45.4087 14.9887 45.9267 15.1753 46.328 15.362C46.7293 15.5487 47.0747 15.8287 47.364 16.202C47.6533 16.5753 47.798 17.0653 47.798 17.672C47.798 18.1947 47.6627 18.68 47.392 19.128C47.1213 19.576 46.7247 19.9353 46.202 20.206C45.6793 20.4673 45.0587 20.598 44.34 20.598ZM56.7073 16.454C56.7073 16.734 56.6886 16.986 56.6513 17.21H50.9813C51.0279 17.77 51.2239 18.2087 51.5693 18.526C51.9146 18.8433 52.3393 19.002 52.8433 19.002C53.5713 19.002 54.0893 18.6893 54.3973 18.064H56.5113C56.2873 18.8107 55.8579 19.4267 55.2233 19.912C54.5886 20.388 53.8093 20.626 52.8853 20.626C52.1386 20.626 51.4666 20.4627 50.8693 20.136C50.2813 19.8 49.8193 19.3287 49.4833 18.722C49.1566 18.1153 48.9932 17.4153 48.9932 16.622C48.9932 15.8193 49.1566 15.1147 49.4833 14.508C49.8099 13.9013 50.2673 13.4347 50.8553 13.108C51.4433 12.7813 52.1199 12.618 52.8853 12.618C53.6226 12.618 54.2806 12.7767 54.8593 13.094C55.4473 13.4113 55.8999 13.864 56.2173 14.452C56.5439 15.0307 56.7073 15.698 56.7073 16.454ZM54.6773 15.894C54.6679 15.39 54.4859 14.9887 54.1313 14.69C53.7766 14.382 53.3426 14.228 52.8293 14.228C52.3439 14.228 51.9333 14.3773 51.5973 14.676C51.2706 14.9653 51.0699 15.3713 50.9953 15.894H54.6773ZM65.4599 12.744V20.5H63.4859V19.52C63.2339 19.856 62.9025 20.122 62.4919 20.318C62.0905 20.5047 61.6519 20.598 61.1759 20.598C60.5692 20.598 60.0325 20.472 59.5659 20.22C59.0992 19.9587 58.7305 19.5807 58.4599 19.086C58.1985 18.582 58.0679 17.9847 58.0679 17.294V12.744H60.0279V17.014C60.0279 17.63 60.1819 18.106 60.4899 18.442C60.7979 18.7687 61.2179 18.932 61.7499 18.932C62.2912 18.932 62.7159 18.7687 63.0239 18.442C63.3319 18.106 63.4859 17.63 63.4859 17.014V12.744H65.4599ZM73.4277 10.728V12.31H69.3537V14.816H72.4757V16.37H69.3537V20.5H67.3937V10.728H73.4277ZM75.8116 11.82C75.4662 11.82 75.1769 11.7127 74.9436 11.498C74.7196 11.274 74.6076 10.9987 74.6076 10.672C74.6076 10.3453 74.7196 10.0747 74.9436 9.86C75.1769 9.636 75.4662 9.524 75.8116 9.524C76.1569 9.524 76.4416 9.636 76.6656 9.86C76.8989 10.0747 77.0156 10.3453 77.0156 10.672C77.0156 10.9987 76.8989 11.274 76.6656 11.498C76.4416 11.7127 76.1569 11.82 75.8116 11.82ZM76.7776 12.744V20.5H74.8176V12.744H76.7776ZM80.674 10.14V20.5H78.714V10.14H80.674ZM86.9785 12.632C87.5665 12.632 88.0892 12.7627 88.5465 13.024C89.0039 13.276 89.3585 13.654 89.6105 14.158C89.8719 14.6527 90.0025 15.25 90.0025 15.95V20.5H88.0425V16.216C88.0425 15.6 87.8885 15.1287 87.5805 14.802C87.2725 14.466 86.8525 14.298 86.3205 14.298C85.7792 14.298 85.3499 14.466 85.0325 14.802C84.7245 15.1287 84.5705 15.6 84.5705 16.216V20.5H82.6105V10.14H84.5705V13.71C84.8225 13.374 85.1585 13.1127 85.5785 12.926C85.9985 12.73 86.4652 12.632 86.9785 12.632ZM95.3104 20.626C94.5637 20.626 93.8917 20.4627 93.2944 20.136C92.6971 19.8 92.2257 19.3287 91.8804 18.722C91.5444 18.1153 91.3764 17.4153 91.3764 16.622C91.3764 15.8287 91.5491 15.1287 91.8944 14.522C92.2491 13.9153 92.7297 13.4487 93.3364 13.122C93.9431 12.786 94.6197 12.618 95.3664 12.618C96.1131 12.618 96.7897 12.786 97.3964 13.122C98.0031 13.4487 98.4791 13.9153 98.8244 14.522C99.1791 15.1287 99.3564 15.8287 99.3564 16.622C99.3564 17.4153 99.1744 18.1153 98.8104 18.722C98.4557 19.3287 97.9704 19.8 97.3544 20.136C96.7477 20.4627 96.0664 20.626 95.3104 20.626ZM95.3104 18.918C95.6651 18.918 95.9964 18.834 96.3044 18.666C96.6217 18.4887 96.8737 18.2273 97.0604 17.882C97.2471 17.5367 97.3404 17.1167 97.3404 16.622C97.3404 15.8847 97.1444 15.32 96.7524 14.928C96.3697 14.5267 95.8984 14.326 95.3384 14.326C94.7784 14.326 94.3071 14.5267 93.9244 14.928C93.5511 15.32 93.3644 15.8847 93.3644 16.622C93.3644 17.3593 93.5464 17.9287 93.9104 18.33C94.2837 18.722 94.7504 18.918 95.3104 18.918ZM103.076 14.354V18.106C103.076 18.3673 103.137 18.5587 103.258 18.68C103.389 18.792 103.603 18.848 103.902 18.848H104.812V20.5H103.58C101.928 20.5 101.102 19.6973 101.102 18.092V14.354H100.178V12.744H101.102V10.826H103.076V12.744H104.812V14.354H103.076ZM113.432 16.454C113.432 16.734 113.413 16.986 113.376 17.21H107.706C107.753 17.77 107.949 18.2087 108.294 18.526C108.639 18.8433 109.064 19.002 109.568 19.002C110.296 19.002 110.814 18.6893 111.122 18.064H113.236C113.012 18.8107 112.583 19.4267 111.948 19.912C111.313 20.388 110.534 20.626 109.61 20.626C108.863 20.626 108.191 20.4627 107.594 20.136C107.006 19.8 106.544 19.3287 106.208 18.722C105.881 18.1153 105.718 17.4153 105.718 16.622C105.718 15.8193 105.881 15.1147 106.208 14.508C106.535 13.9013 106.992 13.4347 107.58 13.108C108.168 12.7813 108.845 12.618 109.61 12.618C110.347 12.618 111.005 12.7767 111.584 13.094C112.172 13.4113 112.625 13.864 112.942 14.452C113.269 15.0307 113.432 15.698 113.432 16.454ZM111.402 15.894C111.393 15.39 111.211 14.9887 110.856 14.69C110.501 14.382 110.067 14.228 109.554 14.228C109.069 14.228 108.658 14.3773 108.322 14.676C107.995 14.9653 107.795 15.3713 107.72 15.894H111.402Z" fill="black"/>
</svg>
